<svg xmlns="http://www.w3.org/2000/svg" width="25.392" height="25.392" viewBox="0 0 25.392 25.392">
  <g id="Group_340" data-name="Group 340" transform="translate(-50.33 -359.278)">
    <path id="Path_154" data-name="Path 154" d="M12.7,25.392a12.7,12.7,0,1,1,12.7-12.7,12.71,12.71,0,0,1-12.7,12.7m0-23.276A10.58,10.58,0,1,0,23.276,12.7,10.592,10.592,0,0,0,12.7,2.116" transform="translate(50.33 359.278)" fill="#ffffff"/>
    <path id="Path_155" data-name="Path 155" d="M19.1,14.236,12.447,7.578,5.789,14.236l-1.5-1.5,8.154-8.154L20.6,12.74Z" transform="translate(50.579 359.544)" fill="#ffffff"/>
    <path id="Path_156" data-name="Path 156" d="M17.58,18.464H7V10H9.116v6.348h6.348V10H17.58Z" transform="translate(50.736 359.858)" fill="#ffffff"/>
  </g>
</svg>
