<svg xmlns="http://www.w3.org/2000/svg" width="18.485" height="22.575" viewBox="0 0 18.485 22.575">
  <path id="Path_301" data-name="Path 301" d="M17.147,21.575l-.51-.3a22.984,22.984,0,0,1-5.291-5.155C9.776,14.074,7.9,11.048,7.9,8.242a9.242,9.242,0,0,1,18.485,0c0,2.805-1.872,5.831-3.442,7.876a22.986,22.986,0,0,1-5.291,5.155ZM17.146,1A7.251,7.251,0,0,0,9.9,8.242c0,3.758,4.777,9.168,7.242,10.969,2.465-1.8,7.242-7.212,7.242-10.969A7.251,7.251,0,0,0,17.146,1ZM17.2,12.906a4.73,4.73,0,1,1,4.729-4.73A4.735,4.735,0,0,1,17.2,12.906Zm0-7.459a2.73,2.73,0,1,0,2.729,2.729A2.733,2.733,0,0,0,17.2,5.447Z" transform="translate(-7.904 1)" fill="#707070"/>
</svg>
