<svg xmlns="http://www.w3.org/2000/svg" xmlns:xlink="http://www.w3.org/1999/xlink" width="96.819" height="54.844" viewBox="0 0 96.819 54.844">
  <defs>
    <clipPath id="clip-path">
      <rect id="Rectangle_191" data-name="Rectangle 191" width="44.155" height="44.155" fill="none"/>
    </clipPath>
    <clipPath id="clip-path-2">
      <rect id="Rectangle_192" data-name="Rectangle 192" width="31.184" height="31.184" fill="none"/>
    </clipPath>
    <clipPath id="clip-path-3">
      <rect id="Rectangle_193" data-name="Rectangle 193" width="29.126" height="29.126" fill="none"/>
    </clipPath>
  </defs>
  <g id="Group_364" data-name="Group 364" transform="translate(0)">
    <path id="Path_265" data-name="Path 265" d="M142.295,178.946h-4.406v-4.406H132.6v4.406h-4.406v5.287H132.6v4.407h5.288v-4.407h4.406Z" transform="translate(-128.193 -155.399)" fill="#121212"/>
    <g id="Group_260" data-name="Group 260" transform="translate(17.851 4.114)" clip-path="url(#clip-path)">
      <path id="Path_266" data-name="Path 266" d="M191.053,178.885l-20-20a2.082,2.082,0,0,0-2.944,0l-19.995,20a2.083,2.083,0,0,0,0,2.944h0l19.995,20a2.083,2.083,0,0,0,2.945,0l19.995-20a2.083,2.083,0,0,0,0-2.945" transform="translate(-147.508 -158.28)" fill="#fff"/>
      <path id="Path_267" data-name="Path 267" d="M186.342,179.672l-15.2-15.2a1.584,1.584,0,0,0-2.238,0l-15.2,15.2a1.582,1.582,0,0,0,0,2.238l15.2,15.2a1.582,1.582,0,0,0,2.238,0l15.2-15.2a1.582,1.582,0,0,0,0-2.238m-9.966,1.664-5.745,5.746a.823.823,0,0,1-1.164,0l0,0-5.745-5.746a.823.823,0,0,1,0-1.164l0,0,5.746-5.743a.824.824,0,0,1,1.164,0l0,0,5.746,5.745a.823.823,0,0,1,0,1.164l0,0m-7.006-13.346v3.053a.737.737,0,0,1-.215.52l-8.441,8.441a.738.738,0,0,1-.52.215H157.12a.735.735,0,0,1-.519-1.254l11.513-11.494a.735.735,0,0,1,1.254.519m14.093,14.32-11.494,11.519a.735.735,0,0,1-1.255-.519v-3.077a.736.736,0,0,1,.213-.518l8.443-8.442a.735.735,0,0,1,.519-.215h3.053a.735.735,0,0,1,.519,1.254" transform="translate(-147.942 -158.714)" fill="#121212"/>
    </g>
    <g id="Group_262" data-name="Group 262" transform="translate(65.635)" clip-path="url(#clip-path-2)">
      <path id="Path_268" data-name="Path 268" d="M229.965,168.381,215.844,154.26a1.471,1.471,0,0,0-2.079,0L199.64,168.384a1.471,1.471,0,0,0,0,2.079l14.125,14.124a1.471,1.471,0,0,0,2.079,0l14.124-14.124a1.471,1.471,0,0,0,0-2.079" transform="translate(-199.213 -153.829)" fill="#fff"/>
      <path id="Path_269" data-name="Path 269" d="M226.637,168.937,215.9,158.2a1.117,1.117,0,0,0-1.581,0l-10.737,10.736a1.119,1.119,0,0,0,0,1.581l10.737,10.735a1.119,1.119,0,0,0,1.581,0l10.735-10.735a1.119,1.119,0,0,0,0-1.581m-7.038,1.176-4.058,4.058a.581.581,0,0,1-.823,0l-4.057-4.058a.581.581,0,0,1,0-.822h0l4.058-4.057a.581.581,0,0,1,.822,0h0l4.057,4.057a.582.582,0,0,1,0,.823h0m-4.947-9.424v2.156a.516.516,0,0,1-.153.367l-5.964,5.961a.516.516,0,0,1-.367.152H206a.519.519,0,0,1-.367-.886l8.134-8.118a.519.519,0,0,1,.886.368M224.6,170.8l-8.117,8.133a.518.518,0,0,1-.887-.367V176.4a.519.519,0,0,1,.152-.367l5.961-5.961a.521.521,0,0,1,.367-.152h2.16a.519.519,0,0,1,.367.886" transform="translate(-199.52 -154.136)" fill="#121212"/>
    </g>
    <g id="Group_264" data-name="Group 264" transform="translate(54.051 25.718)" clip-path="url(#clip-path-3)">
      <path id="Path_270" data-name="Path 270" d="M215.4,195.248l-13.19-13.19a1.371,1.371,0,0,0-1.939,0l0,0-13.189,13.19a1.371,1.371,0,0,0,0,1.939l0,0,13.189,13.19a1.372,1.372,0,0,0,1.94,0l0,0,13.19-13.19a1.372,1.372,0,0,0,0-1.94l0,0" transform="translate(-186.678 -181.657)" fill="#fff"/>
      <path id="Path_271" data-name="Path 271" d="M212.293,195.767,202.265,185.74a1.043,1.043,0,0,0-1.477,0l-10.027,10.027a1.045,1.045,0,0,0,0,1.477l10.027,10.028a1.045,1.045,0,0,0,1.477,0l10.028-10.028a1.043,1.043,0,0,0,0-1.477m-6.574,1.1-3.789,3.79a.542.542,0,0,1-.768,0l-3.79-3.789a.543.543,0,0,1,0-.768h0l3.79-3.79a.544.544,0,0,1,.768,0l3.789,3.79a.543.543,0,0,1,0,.768h0m-4.62-8.8v2.014a.487.487,0,0,1-.143.343l-5.564,5.568a.49.49,0,0,1-.344.142h-2.03a.485.485,0,0,1-.344-.828l7.6-7.582a.486.486,0,0,1,.687,0,.5.5,0,0,1,.141.341m9.294,9.447-7.581,7.6a.485.485,0,0,1-.829-.342v-2.029a.486.486,0,0,1,.142-.343l5.568-5.568a.482.482,0,0,1,.343-.141h2.014a.485.485,0,0,1,.484.485.479.479,0,0,1-.141.341" transform="translate(-186.964 -181.943)" fill="#121212"/>
    </g>
  </g>
</svg>
