<svg xmlns="http://www.w3.org/2000/svg" width="11.018" height="11.018" viewBox="0 0 11.018 11.018">
  <path id="arrow-up-right-from-square-solid" d="M6.3,32.787A.787.787,0,0,1,7.083,32h3.126a.806.806,0,0,1,.322.06,1.134,1.134,0,0,1,.256.169s0,0,0,0a.887.887,0,0,1,.229.552v3.15a.787.787,0,1,1-1.574,0V34.688L5.278,38.852A.786.786,0,0,1,4.166,37.74L8.33,33.574H7.083a.787.787,0,0,1-.787-.787ZM0,34.361a1.574,1.574,0,0,1,1.574-1.574H3.935a.787.787,0,1,1,0,1.574H1.574v7.083H8.657V39.083a.787.787,0,1,1,1.574,0v2.361a1.575,1.575,0,0,1-1.574,1.574H1.574A1.575,1.575,0,0,1,0,41.444Z" transform="translate(0 -32)" fill="#06c"/>
</svg>
