<svg xmlns="http://www.w3.org/2000/svg" xmlns:xlink="http://www.w3.org/1999/xlink" width="161" height="51.402" viewBox="0 0 161 51.402">
  <defs>
    <clipPath id="clip-path">
      <rect id="Rectangle_96" data-name="Rectangle 96" width="161" height="51.402" fill="#121212" stroke="rgba(0,0,0,0)" stroke-miterlimit="10" stroke-width="1"/>
    </clipPath>
  </defs>
  <g id="Group_372" data-name="Group 372" transform="translate(-714 -307.802)">
    <g id="Group_371" data-name="Group 371" transform="translate(714 307.802)">
      <g id="Group_94" data-name="Group 94" clip-path="url(#clip-path)">
        <path id="Path_132" data-name="Path 132" d="M39.224,0H12.178A12.178,12.178,0,0,0,0,12.178V39.224A12.178,12.178,0,0,0,12.178,51.4H39.224A12.178,12.178,0,0,0,51.4,39.224V12.178A12.178,12.178,0,0,0,39.224,0m9.33,38.431A10.123,10.123,0,0,1,38.431,48.554H12.971A10.123,10.123,0,0,1,2.848,38.431V12.971A10.123,10.123,0,0,1,12.971,2.848H38.431A10.123,10.123,0,0,1,48.554,12.971Z" transform="translate(0 0)" fill="#121212" stroke="rgba(0,0,0,0)" stroke-miterlimit="10" stroke-width="1"/>
        <path id="Path_133" data-name="Path 133" d="M93.419,94.548,87.426,77.254a1.585,1.585,0,0,0-1.5-1.066h-11.3a1.585,1.585,0,0,0-1.585,1.585v11.3a1.586,1.586,0,0,0,1.066,1.5L91.4,96.565a1.585,1.585,0,0,0,2.017-2.017M75.026,79.757a1.58,1.58,0,0,1,.464-1.121l2.3,2.3,7.411-2.6a1.582,1.582,0,0,1,.816.909l4.192,12.1a1.566,1.566,0,0,1-.377,1.64l-7.019-7.019-2.474,2.6,1.589-3.484-3.149-3.149-3.549,6.5a1.576,1.576,0,0,1-.2-.763Z" transform="translate(-52.35 -54.605)" fill="#121212" stroke="rgba(0,0,0,0)" stroke-miterlimit="10" stroke-width="1"/>
        <path id="Path_134" data-name="Path 134" d="M37.747,41.439l3.587,7.146a.406.406,0,0,0,.288.217l4.384.824a.406.406,0,0,0,.475-.474l-.825-4.384a.406.406,0,0,0-.217-.288l-7.146-3.587a.407.407,0,0,0-.546.546M43.3,47.477l-1.008-.133a.407.407,0,0,1-.309-.219l-.9-1.778a.407.407,0,0,1,.65-.472l1.911,1.911a.406.406,0,0,1-.341.69" transform="translate(-27.022 -29.277)" fill="#121212" stroke="rgba(0,0,0,0)" stroke-miterlimit="10" stroke-width="1"/>
        <path id="Path_135" data-name="Path 135" d="M23.22,84.039,30.8,86.554a.408.408,0,0,0,.359-.05l3.68-2.515a.408.408,0,0,0,0-.674L31.162,80.8a.41.41,0,0,0-.359-.05L23.22,83.264a.408.408,0,0,0,0,.775m8.187.345-.8.615a.408.408,0,0,1-.375.064l-1.884-.614a.409.409,0,0,1,.127-.8h2.685a.408.408,0,0,1,.248.733" transform="translate(-16.442 -57.859)" fill="#121212" stroke="rgba(0,0,0,0)" stroke-miterlimit="10" stroke-width="1"/>
        <path id="Path_136" data-name="Path 136" d="M78.885,27.606l-2.514,7.58a.409.409,0,0,0,.051.36l2.514,3.678a.409.409,0,0,0,.676,0l2.514-3.678a.409.409,0,0,0,.051-.36l-2.514-7.58a.41.41,0,0,0-.777,0m-.346,8.181-.612-.8a.409.409,0,0,1-.064-.376l.612-1.877a.41.41,0,0,1,.8.127v2.675a.41.41,0,0,1-.735.249" transform="translate(-54.722 -19.585)" fill="#121212" stroke="rgba(0,0,0,0)" stroke-miterlimit="10" stroke-width="1"/>
        <path id="Path_137" data-name="Path 137" d="M223.738,68.767c0-6.476,4.108-10.728,10.39-10.728,4.881,0,8.408,2.609,9.714,6.814l-7.491,2.223a2.341,2.341,0,0,0-2.223-1.788c-1.547,0-2.561,1.4-2.561,3.48s1.015,3.48,2.561,3.48a2.409,2.409,0,0,0,2.32-1.788l7.491,2.223c-1.3,4.2-4.881,6.814-9.81,6.814-6.283,0-10.39-4.253-10.39-10.728" transform="translate(-160.357 -41.597)" fill="#121212" stroke="rgba(0,0,0,0)" stroke-miterlimit="10" stroke-width="1"/>
        <path id="Path_138" data-name="Path 138" d="M318.525,65.384V78.916h-5.993l-.918-1.836a7.433,7.433,0,0,1-5.557,2.416,5.878,5.878,0,0,1-6.234-5.993c0-3.576,2.706-6.089,7.007-6.524l3.963-.387v-.145c0-1.112-.725-1.74-2.175-1.74a12.339,12.339,0,0,0-5.606,1.595l-2.851-5.268c1.788-1.546,6.621-3,10.39-3,5.315,0,7.974,2.9,7.974,7.345m-9.81,8.892a3.029,3.029,0,0,0,2.078-.918V70.942l-1.546.145c-1.3.145-2.126.773-2.126,1.788a1.429,1.429,0,0,0,1.595,1.4" transform="translate(-214.888 -41.597)" fill="#121212" stroke="rgba(0,0,0,0)" stroke-miterlimit="10" stroke-width="1"/>
        <path id="Path_139" data-name="Path 139" d="M393.726,58.476v8.505a7.553,7.553,0,0,0-1.837-.145,5.115,5.115,0,0,0-4.156,1.836V79.159H380v-20.3h6.089l.967,2.948c1.595-2.223,3.528-3.431,5.7-3.431a4.219,4.219,0,0,1,.967.1" transform="translate(-272.353 -41.841)" fill="#121212" stroke="rgba(0,0,0,0)" stroke-miterlimit="10" stroke-width="1"/>
        <path id="Path_140" data-name="Path 140" d="M452.269,65.384V78.916h-5.993l-.918-1.836A7.433,7.433,0,0,1,439.8,79.5a5.878,5.878,0,0,1-6.234-5.993c0-3.576,2.706-6.089,7.007-6.524l3.963-.387v-.145c0-1.112-.725-1.74-2.175-1.74a12.34,12.34,0,0,0-5.606,1.595l-2.851-5.268c1.788-1.546,6.621-3,10.39-3,5.316,0,7.974,2.9,7.974,7.345m-9.81,8.892a3.029,3.029,0,0,0,2.078-.918V70.942l-1.546.145c-1.3.145-2.126.773-2.126,1.788a1.429,1.429,0,0,0,1.595,1.4" transform="translate(-310.745 -41.597)" fill="#121212" stroke="rgba(0,0,0,0)" stroke-miterlimit="10" stroke-width="1"/>
        <path id="Path_141" data-name="Path 141" d="M525.176,59.273c-1.208,1.16-4.2,2.127-6.959,2.127-4.3,0-6.959-2.513-6.959-6.862V47.144h-3.141V40.523h3.141V34.241l7.732-1.45v7.732h4.784v6.621H518.99v5.751a1.2,1.2,0,0,0,1.353,1.256,4.58,4.58,0,0,0,2.368-.773Z" transform="translate(-364.176 -23.502)" fill="#121212" stroke="rgba(0,0,0,0)" stroke-miterlimit="10" stroke-width="1"/>
      </g>
    </g>
  </g>
</svg>
