<svg id="Group_346" data-name="Group 346" xmlns="http://www.w3.org/2000/svg" xmlns:xlink="http://www.w3.org/1999/xlink" width="24.817" height="22" viewBox="0 0 24.817 22">
  <defs>
    <clipPath id="clip-path">
      <rect id="Rectangle_236" data-name="Rectangle 236" width="24.817" height="22" fill="#707070"/>
    </clipPath>
  </defs>
  <g id="Group_305" data-name="Group 305" clip-path="url(#clip-path)">
    <path id="Path_294" data-name="Path 294" d="M20.961,1H3.818A2.849,2.849,0,0,0,1,3.857V18.143A2.849,2.849,0,0,0,3.817,21H20.96a2.857,2.857,0,0,0,2.857-2.857V3.857A2.831,2.831,0,0,0,20.961,1Zm-15,2.857A2.143,2.143,0,0,1,8.1,6,2.142,2.142,0,1,1,3.818,6,2.169,2.169,0,0,1,5.961,3.857ZM20.916,17.768a.713.713,0,0,1-.629.375H4.662a.714.714,0,0,1-.577-1.135L7.21,12.722a.715.715,0,0,1,1.154,0l1.449,1.987L13.978,8.5a.676.676,0,0,1,.594-.356.715.715,0,0,1,.594.318l5.715,8.572A.713.713,0,0,1,20.916,17.768Z" fill="#707070"/>
  </g>
</svg>
