<svg xmlns="http://www.w3.org/2000/svg" width="75" height="75" viewBox="0 0 75 75">
  <g id="Group_286" data-name="Group 286" transform="translate(-35.84 0)">
    <g id="Group_285" data-name="Group 285" transform="translate(35.84 0)">
      <path id="Path_283" data-name="Path 283" d="M72.222,0H32.758A17.77,17.77,0,0,0,14.99,17.77V57.232A17.769,17.769,0,0,0,32.758,75H72.222A17.768,17.768,0,0,0,89.99,57.232V17.77A17.768,17.768,0,0,0,72.222,0M85.835,56.074a14.769,14.769,0,0,1-14.77,14.769H33.917A14.769,14.769,0,0,1,19.145,56.074V18.926A14.771,14.771,0,0,1,33.917,4.157H71.066a14.77,14.77,0,0,1,14.77,14.769Z" transform="translate(-14.99)" fill="#121212"/>
      <path id="Path_284" data-name="Path 284" d="M60.016,42.474l-9.3-26.822A2.455,2.455,0,0,0,48.4,14H30.87a2.457,2.457,0,0,0-2.458,2.458V33.984a2.462,2.462,0,0,0,1.655,2.324l26.819,9.3a2.46,2.46,0,0,0,3.13-3.13M31.489,19.535a2.45,2.45,0,0,1,.72-1.738l3.56,3.56,11.5-4.038a2.457,2.457,0,0,1,1.265,1.411l6.5,18.762a2.422,2.422,0,0,1-.583,2.542L43.561,29.147l-3.837,4.031,2.463-5.4L37.3,22.89,31.8,32.977a2.445,2.445,0,0,1-.308-1.184Z" transform="translate(0.523 16.179)" fill="#121212"/>
      <path id="Path_285" data-name="Path 285" d="M21.988,8.422l5.564,11.084a.639.639,0,0,0,.447.337l6.8,1.277a.628.628,0,0,0,.736-.734l-1.279-6.8a.627.627,0,0,0-.337-.447L22.834,7.576a.63.63,0,0,0-.846.846M30.6,17.787l-1.564-.206a.634.634,0,0,1-.478-.34l-1.4-2.759a.63.63,0,0,1,1.007-.732l2.965,2.965a.631.631,0,0,1-.528,1.071" transform="translate(-6.536 9.158)" fill="#121212"/>
      <path id="Path_286" data-name="Path 286" d="M19.639,19.969l11.761,3.9a.641.641,0,0,0,.557-.079l5.707-3.9a.634.634,0,0,0,0-1.047l-5.707-3.9a.633.633,0,0,0-.557-.079l-11.761,3.9a.634.634,0,0,0,0,1.2m12.7.536-1.243.954a.632.632,0,0,1-.581.1l-2.922-.952a.634.634,0,0,1,.2-1.236H31.95a.633.633,0,0,1,.385,1.136" transform="translate(-9.126 18.264)" fill="#121212"/>
      <path id="Path_287" data-name="Path 287" d="M32.949,5.455l-3.9,11.756a.631.631,0,0,0,.079.557l3.9,5.7a.634.634,0,0,0,1.05,0l3.9-5.7a.631.631,0,0,0,.079-.557l-3.9-11.756a.637.637,0,0,0-1.207,0m-.536,12.689-.949-1.239a.631.631,0,0,1-.1-.583l.949-2.912a.635.635,0,0,1,1.239.2v4.148a.635.635,0,0,1-1.138.387" transform="translate(2.284 6.055)" fill="#121212"/>
    </g>
  </g>
</svg>
