<svg xmlns="http://www.w3.org/2000/svg" width="22.164" height="22.163" viewBox="0 0 22.164 22.163">
  <path id="Union_1" data-name="Union 1" d="M-4422.818-4735.21l-9.81-9.81a1.262,1.262,0,0,1-.372-.9,1.265,1.265,0,0,1,.372-.9l9.81-9.81a1.267,1.267,0,0,1,.9-.372,1.268,1.268,0,0,1,.9.372l9.809,9.81a1.26,1.26,0,0,1,.374.9,1.258,1.258,0,0,1-.374.9l-9.809,9.81a1.269,1.269,0,0,1-.9.373A1.268,1.268,0,0,1-4422.818-4735.21Zm7.108-10.221-5.448,5.448a.219.219,0,0,0-.064.157v1.984a.225.225,0,0,0,.227.226.213.213,0,0,0,.155-.067l7.417-7.432a.219.219,0,0,0,.048-.244.219.219,0,0,0-.207-.138h-1.97A.221.221,0,0,0-4415.709-4745.431Zm-6.39-4.418-3.708,3.707a.284.284,0,0,0,0,.4l3.708,3.707a.281.281,0,0,0,.2.083.28.28,0,0,0,.2-.083l3.707-3.707a.282.282,0,0,0,0-.4l-3.707-3.707a.276.276,0,0,0-.2-.083A.277.277,0,0,0-4422.1-4749.849Zm-.872-4.488-7.431,7.417a.221.221,0,0,0-.049.244.221.221,0,0,0,.208.139h1.984a.219.219,0,0,0,.158-.066l5.447-5.446a.226.226,0,0,0,.066-.159v-1.97a.225.225,0,0,0-.228-.226A.216.216,0,0,0-4422.971-4754.337Z" transform="translate(4433 4757)" fill="#707070"/>
</svg>
