<svg xmlns="http://www.w3.org/2000/svg" xmlns:xlink="http://www.w3.org/1999/xlink" width="253" height="142.508" viewBox="0 0 253 142.508">
  <defs>
    <clipPath id="clip-path">
      <rect id="Rectangle_191" data-name="Rectangle 191" width="37.852" height="37.852" fill="none"/>
    </clipPath>
    <clipPath id="clip-path-2">
      <rect id="Rectangle_192" data-name="Rectangle 192" width="26.733" height="26.733" fill="none"/>
    </clipPath>
    <clipPath id="clip-path-3">
      <rect id="Rectangle_193" data-name="Rectangle 193" width="24.969" height="24.969" fill="none"/>
    </clipPath>
  </defs>
  <g id="Group_386" data-name="Group 386" transform="translate(-1582 -621.492)">
    <rect id="Rectangle_420" data-name="Rectangle 420" width="253" height="119" rx="10" transform="translate(1582 645)" fill="#dbac13"/>
    <g id="Group_374" data-name="Group 374" transform="translate(1738 621.492)">
      <path id="Path_265" data-name="Path 265" d="M140.282,178.317H136.5v-3.778h-4.533v3.778h-3.778v4.533h3.778v3.778H136.5V182.85h3.778Z" transform="translate(-128.193 -158.131)" fill="#121212"/>
      <g id="Group_260" data-name="Group 260" transform="translate(15.303 3.526)" clip-path="url(#clip-path)">
        <path id="Path_266" data-name="Path 266" d="M184.838,175.944,167.7,158.8a1.785,1.785,0,0,0-2.524,0l-17.141,17.142a1.785,1.785,0,0,0,0,2.524h0l17.141,17.142a1.786,1.786,0,0,0,2.525,0l17.141-17.142a1.785,1.785,0,0,0,0-2.525" transform="translate(-147.508 -158.28)" fill="#fff"/>
        <path id="Path_267" data-name="Path 267" d="M181.617,177.436,168.584,164.4a1.358,1.358,0,0,0-1.919,0l-13.032,13.032a1.357,1.357,0,0,0,0,1.919l13.032,13.033a1.357,1.357,0,0,0,1.919,0l13.033-13.033a1.357,1.357,0,0,0,0-1.919m-8.544,1.427-4.925,4.926a.706.706,0,0,1-1,0l0,0-4.925-4.926a.706.706,0,0,1,0-1l0,0,4.926-4.923a.706.706,0,0,1,1,0l0,0,4.926,4.925a.706.706,0,0,1,0,1l0,0m-6.006-11.441v2.617a.632.632,0,0,1-.185.446l-7.236,7.236a.633.633,0,0,1-.446.185h-2.635a.63.63,0,0,1-.445-1.075l9.869-9.854a.63.63,0,0,1,1.075.445M179.146,179.7l-9.854,9.875a.63.63,0,0,1-1.076-.445v-2.637a.631.631,0,0,1,.183-.444l7.238-7.237a.63.63,0,0,1,.445-.185H178.7a.63.63,0,0,1,.445,1.075" transform="translate(-148.698 -159.47)" fill="#121212"/>
      </g>
      <g id="Group_262" data-name="Group 262" transform="translate(56.267)" clip-path="url(#clip-path-2)">
        <path id="Path_268" data-name="Path 268" d="M225.575,166.3,213.47,154.2a1.261,1.261,0,0,0-1.783,0l-12.109,12.108a1.261,1.261,0,0,0,0,1.783L211.687,180.2a1.261,1.261,0,0,0,1.783,0l12.108-12.108a1.261,1.261,0,0,0,0-1.783" transform="translate(-199.212 -153.829)" fill="#fff"/>
        <path id="Path_269" data-name="Path 269" d="M223.3,167.358l-9.2-9.2a.958.958,0,0,0-1.356,0l-9.2,9.2a.959.959,0,0,0,0,1.356l9.2,9.2a.959.959,0,0,0,1.356,0l9.2-9.2a.959.959,0,0,0,0-1.356m-6.033,1.008-3.479,3.479a.5.5,0,0,1-.705,0l-3.478-3.479a.5.5,0,0,1,0-.7h0l3.479-3.478a.5.5,0,0,1,.7,0h0l3.478,3.478a.5.5,0,0,1,0,.705h0m-4.241-8.079v1.848a.442.442,0,0,1-.131.315l-5.113,5.11a.442.442,0,0,1-.315.131h-1.86a.445.445,0,0,1-.315-.76l6.973-6.959a.445.445,0,0,1,.76.315m8.53,8.67-6.959,6.972a.444.444,0,0,1-.761-.315v-1.861a.445.445,0,0,1,.13-.315l5.11-5.11a.447.447,0,0,1,.315-.131h1.852a.445.445,0,0,1,.315.76" transform="translate(-200.053 -154.669)" fill="#121212"/>
      </g>
      <g id="Group_264" data-name="Group 264" transform="translate(46.336 22.047)" clip-path="url(#clip-path-3)">
        <path id="Path_270" data-name="Path 270" d="M211.3,193.308,199.994,182a1.175,1.175,0,0,0-1.662,0l0,0-11.307,11.307a1.175,1.175,0,0,0,0,1.662l0,0,11.307,11.307a1.176,1.176,0,0,0,1.663,0l0,0L211.3,194.973a1.176,1.176,0,0,0,0-1.663l0,0" transform="translate(-186.678 -181.657)" fill="#fff"/>
        <path id="Path_271" data-name="Path 271" d="M209.176,194.292l-8.6-8.6a.894.894,0,0,0-1.266,0l-8.6,8.6a.9.9,0,0,0,0,1.266l8.6,8.6a.9.9,0,0,0,1.266,0l8.6-8.6a.894.894,0,0,0,0-1.266m-5.635.94-3.248,3.249a.465.465,0,0,1-.658,0l-3.249-3.248a.466.466,0,0,1,0-.658h0l3.249-3.249a.466.466,0,0,1,.658,0l3.248,3.249a.466.466,0,0,1,0,.658h0m-3.961-7.546v1.726a.418.418,0,0,1-.123.294l-4.769,4.773a.42.42,0,0,1-.295.122h-1.741a.416.416,0,0,1-.295-.71l6.512-6.5a.417.417,0,0,1,.589,0,.428.428,0,0,1,.121.292m7.967,8.1-6.5,6.512a.416.416,0,0,1-.711-.293v-1.739a.417.417,0,0,1,.122-.294l4.773-4.773a.413.413,0,0,1,.294-.121h1.726a.416.416,0,0,1,.415.416.41.41,0,0,1-.121.292" transform="translate(-187.463 -182.441)" fill="#121212"/>
      </g>
    </g>
  </g>
</svg>
