<svg xmlns="http://www.w3.org/2000/svg" width="22.055" height="22" viewBox="0 0 22.055 22">
  <path id="gear-solid" d="M34.645,6.508a.853.853,0,0,1-.261.961L32.589,9.008a7.022,7.022,0,0,1,0,1.984l1.795,1.539a.853.853,0,0,1,.261.961,9.655,9.655,0,0,1-.651,1.34l-.195.316a10.316,10.316,0,0,1-.916,1.223.986.986,0,0,1-1.015.266l-2.308-.7a9.217,9.217,0,0,1-1.824,1l-.518,2.23a.968.968,0,0,1-.754.7,11.475,11.475,0,0,1-1.8.137,11.23,11.23,0,0,1-1.724-.137.968.968,0,0,1-.754-.7l-.518-2.23a8.279,8.279,0,0,1-1.824-1l-2.307.7a.984.984,0,0,1-1.016-.266,10.274,10.274,0,0,1-.916-1.223l-.194-.316a9.488,9.488,0,0,1-.654-1.34.854.854,0,0,1,.263-.961l1.793-1.539a7.147,7.147,0,0,1,0-1.984L15.021,7.469a.852.852,0,0,1-.263-.961,9.533,9.533,0,0,1,.654-1.34l.194-.316a10.145,10.145,0,0,1,.917-1.221.978.978,0,0,1,1.016-.266l2.307.694a8.1,8.1,0,0,1,1.824-.995l.518-2.23a.916.916,0,0,1,.754-.7,11.382,11.382,0,0,1,3.523,0,.916.916,0,0,1,.754.7l.518,2.23a9,9,0,0,1,1.824.995l2.308-.694a.98.98,0,0,1,1.015.266A10.138,10.138,0,0,1,33.8,4.852l.195.316a9.655,9.655,0,0,1,.651,1.34ZM24.7,13.125a3.23,3.23,0,0,0,3.316-3.16,3.321,3.321,0,0,0-6.631,0A3.23,3.23,0,0,0,24.7,13.125Z" transform="translate(-13.674 1)" fill="none" stroke="#707070" stroke-width="2"/>
</svg>
