<svg xmlns="http://www.w3.org/2000/svg" width="23.943" height="23.943" viewBox="0 0 23.943 23.943">
  <g id="Group_293" data-name="Group 293" transform="translate(-1268.795 -424.795)">
    <g id="Group_294" data-name="Group 294" transform="translate(1268.795 424.795)">
      <path id="Path_288" data-name="Path 288" d="M11.971,0A11.971,11.971,0,1,1,0,11.971,11.971,11.971,0,0,1,11.971,0Z" fill="#121212"/>
      <g id="Group_292" data-name="Group 292" transform="translate(4.869 4.869)">
        <path id="Path_283" data-name="Path 283" d="M25.829,0H18.355A3.365,3.365,0,0,0,14.99,3.365v7.474A3.365,3.365,0,0,0,18.355,14.2h7.474a3.365,3.365,0,0,0,3.365-3.365V3.365A3.365,3.365,0,0,0,25.829,0m2.578,10.62a2.8,2.8,0,0,1-2.8,2.8H18.574a2.8,2.8,0,0,1-2.8-2.8V3.584a2.8,2.8,0,0,1,2.8-2.8H25.61a2.8,2.8,0,0,1,2.8,2.8Z" transform="translate(-14.99 0)" fill="#fff"/>
        <path id="Path_284" data-name="Path 284" d="M34.043,19.073l-1.656-4.779A.437.437,0,0,0,31.973,14H28.85a.438.438,0,0,0-.438.438v3.123a.439.439,0,0,0,.295.414l4.778,1.656a.438.438,0,0,0,.558-.558M28.96,14.986a.437.437,0,0,1,.128-.31l.634.634,2.048-.72a.438.438,0,0,1,.225.251l1.158,3.343a.432.432,0,0,1-.1.453l-1.94-1.94-.684.718.439-.963-.87-.87-.981,1.8a.436.436,0,0,1-.055-.211Z" transform="translate(-22.694 -8.036)" fill="#fff"/>
        <path id="Path_285" data-name="Path 285" d="M21.93,7.669l.991,1.975A.114.114,0,0,0,23,9.7l1.211.227a.112.112,0,0,0,.131-.131l-.228-1.212a.112.112,0,0,0-.06-.08l-1.975-.991a.112.112,0,0,0-.151.151m1.534,1.669L23.186,9.3a.113.113,0,0,1-.085-.06l-.25-.492a.112.112,0,0,1,.179-.13l.528.528a.112.112,0,0,1-.094.191" transform="translate(-18.967 -4.308)" fill="#fff"/>
        <path id="Path_286" data-name="Path 286" d="M19.283,15.749l2.1.7a.114.114,0,0,0,.1-.014l1.017-.695a.113.113,0,0,0,0-.187l-1.017-.695a.113.113,0,0,0-.1-.014l-2.1.695a.113.113,0,0,0,0,.214m2.262.1-.222.17a.113.113,0,0,1-.1.017l-.521-.17a.113.113,0,0,1,.035-.22h.742a.113.113,0,0,1,.069.2" transform="translate(-17.41 -8.515)" fill="#fff"/>
        <path id="Path_287" data-name="Path 287" d="M29.72,5.1l-.694,2.095a.112.112,0,0,0,.014.1l.694,1.016a.113.113,0,0,0,.187,0l.694-1.016a.112.112,0,0,0,.014-.1L29.935,5.1a.113.113,0,0,0-.215,0m-.1,2.261-.169-.221a.112.112,0,0,1-.018-.1l.169-.519a.113.113,0,0,1,.221.035v.739a.113.113,0,0,1-.2.069" transform="translate(-23.043 -2.882)" fill="#fff"/>
      </g>
    </g>
  </g>
</svg>
